<?xml version="1.0" standalone="no"?>
<!DOCTYPE svg PUBLIC "-//W3C//DTD SVG 20010904//EN"
 "http://www.w3.org/TR/2001/REC-SVG-20010904/DTD/svg10.dtd">
<svg version="1.0" xmlns="http://www.w3.org/2000/svg"
 width="250.000000pt" height="200.000000pt" viewBox="0 0 250.000000 200.000000"
 preserveAspectRatio="xMidYMid meet">

<g transform="translate(0.000000,200.000000) scale(0.100000,-0.100000)"
fill="#000000" stroke="none">
<path d="M1237 1456 c-3 -7 -9 -34 -12 -60 -4 -25 -11 -46 -16 -46 -5 0 -9 -7
-9 -15 0 -10 -16 -16 -49 -21 -48 -6 -71 -18 -166 -81 -62 -42 -108 -44 -147
-6 -31 29 -37 17 -12 -23 23 -34 70 -57 105 -50 15 3 67 28 115 56 102 58 144
64 170 25 14 -21 15 -56 11 -277 -2 -139 -8 -263 -12 -275 -4 -11 -15 -23 -26
-26 -11 -3 -19 -14 -19 -26 0 -12 -6 -23 -12 -25 -7 -2 -32 -9 -55 -15 -24 -7
-55 -23 -70 -36 l-28 -24 245 0 245 0 -30 25 c-16 13 -48 29 -70 35 -22 6 -46
13 -52 15 -7 2 -13 13 -13 25 0 12 -8 23 -19 26 -11 3 -22 15 -26 26 -4 12
-10 138 -12 280 -5 236 -3 260 13 278 26 28 71 23 144 -18 120 -66 134 -73
153 -73 35 0 77 31 98 73 l21 42 -34 -32 c-51 -50 -87 -45 -188 22 -76 51
-104 61 -153 57 -11 -1 -21 6 -24 18 -3 11 -9 20 -13 20 -4 0 -11 21 -15 46
-8 55 -14 74 -25 74 -4 0 -10 -6 -13 -14z"/>
<path d="M1670 977 c0 -4 16 -39 35 -77 l35 -70 -145 0 c-80 0 -145 2 -145 5
0 3 12 28 26 56 14 28 24 53 22 55 -3 2 -18 -24 -36 -59 -36 -73 -32 -88 39
-125 64 -34 155 -27 207 16 26 21 36 37 35 53 -2 22 -72 164 -73 146z"/>
<path d="M1000 947 c0 -4 11 -30 25 -57 14 -27 25 -52 25 -55 0 -3 -65 -5
-145 -5 l-145 0 26 51 c14 28 24 53 22 54 -2 2 -16 -21 -32 -51 -25 -47 -27
-58 -17 -78 32 -59 153 -84 233 -48 26 11 53 31 62 44 15 23 14 28 -19 89 -19
35 -35 60 -35 56z"/>
</g>
</svg>
